2.2Hz3min_grf.mot
version=1
nRows=17
nColumns 19
inDegrees=yes
endheader
time	1_ground_force_vx	1_ground_force_vy	1_ground_force_vz	1_ground_force_px	1_ground_force_py	1_ground_force_pz	1_ground_torque_x	1_ground_torque_y	1_ground_torque_z	2_ground_force_vx	2_ground_force_vy	2_ground_force_vz	2_ground_force_px	2_ground_force_py	2_ground_force_pz	2_ground_torque_x	2_ground_torque_y	2_ground_torque_z
            0.005000	            7.319075	           51.027809	           -2.413243	           -0.195473	            0.005930	           -0.335468	           -0.006556	           -0.045707	            0.002162	           -0.068235	           44.751896	           -0.825865	           -0.216648	            0.005716	           -0.701855	           -0.000059	            0.038442	           -0.000709
            0.005500	            7.181673	           52.829653	           -2.221748	           -0.196249	            0.005937	           -0.337096	           -0.020004	           -0.147155	            0.006189	           -0.306595	           45.856944	           -1.103391	           -0.217093	            0.005707	           -0.699701	            0.000571	           -0.085459	            0.002056
            0.006000	            7.503089	           54.991330	           -1.846422	           -0.196017	            0.005932	           -0.335813	           -0.010972	           -0.080414	            0.002700	           -0.969764	           47.879873	           -1.002028	           -0.216540	            0.005726	           -0.704567	            0.001354	           -0.066854	            0.001399
            0.006500	            7.411092	           56.073103	           -1.887412	           -0.195069	            0.005942	           -0.338075	            0.002339	            0.017697	           -0.000596	           -1.722747	           48.798410	           -1.139209	           -0.214492	            0.005732	           -0.703940	            0.000417	           -0.011817	            0.000276
            0.007000	            7.501682	           58.958355	           -2.104552	           -0.196216	            0.005926	           -0.334475	            0.003713	            0.029184	           -0.001042	           -2.717105	           51.740227	           -0.846709	           -0.215110	            0.005735	           -0.705582	           -0.003181	            0.060581	           -0.000991
            0.007500	            6.996155	           60.221886	           -2.510593	           -0.197348	            0.005940	           -0.337769	            0.004309	            0.037088	           -0.001546	           -3.803210	           54.129595	           -0.649996	           -0.214098	            0.005749	           -0.708293	           -0.012767	            0.181712	           -0.002182
            0.008000	            6.718440	           62.929554	           -3.369578	           -0.197356	            0.005936	           -0.336754	           -0.005495	           -0.051470	            0.002756	           -4.604914	           55.599403	           -0.503617	           -0.214266	            0.005739	           -0.705805	           -0.008792	            0.106156	           -0.000962
            0.008500	            6.854453	           64.373868	           -3.868151	           -0.196698	            0.005935	           -0.336569	           -0.014516	           -0.136325	            0.008192	           -5.266314	           57.071728	           -0.920434	           -0.214095	            0.005744	           -0.706978	            0.000302	           -0.003276	            0.000053
            0.009000	            6.900536	           66.175551	           -3.631256	           -0.197706	            0.005935	           -0.336557	           -0.020262	           -0.194311	            0.010662	           -6.165603	           59.645252	           -0.535432	           -0.212669	            0.005754	           -0.708355	            0.000658	           -0.006368	            0.000057
            0.009500	            6.992346	           69.238906	           -3.343207	           -0.198354	            0.005934	           -0.336500	           -0.014882	           -0.147359	            0.007115	           -6.779324	           60.932258	           -0.577502	           -0.213107	            0.005743	           -0.705868	            0.013599	           -0.122223	            0.001158
            0.010000	            7.541971	           70.681530	           -3.430101	           -0.197862	            0.005939	           -0.337672	           -0.004619	           -0.043292	            0.002101	           -8.006644	           63.505267	           -0.380072	           -0.210887	            0.005753	           -0.706298	           -0.004073	            0.032305	           -0.000193
            0.010500	            7.817266	           73.744724	           -3.096652	           -0.199648	            0.005941	           -0.338050	            0.000962	            0.009075	           -0.000381	           -9.041370	           64.606778	           -0.469548	           -0.211238	            0.005749	           -0.705455	           -0.015745	            0.112509	           -0.000818
            0.011000	            7.860683	           75.190594	           -3.961844	           -0.199781	            0.005936	           -0.336987	           -0.001565	           -0.014967	            0.000789	          -10.318801	           68.099850	           -0.128029	           -0.209558	            0.005761	           -0.707158	           -0.021353	            0.140920	           -0.000265
            0.011500	            7.767757	           76.994805	           -4.320734	           -0.198711	            0.005937	           -0.337062	           -0.007680	           -0.076129	            0.004272	          -11.592224	           70.487879	            0.256476	           -0.210340	            0.005761	           -0.707927	           -0.016818	            0.102262	            0.000372
            0.012000	            8.087191	           78.799490	           -4.772360	           -0.198252	            0.005938	           -0.337287	           -0.021977	           -0.214136	            0.012969	          -12.676294	           72.324468	            0.545073	           -0.209598	            0.005770	           -0.709703	           -0.007454	            0.042530	            0.000321
            0.012500	            8.361560	           81.323656	           -4.853933	           -0.200342	            0.005934	           -0.336620	           -0.021381	           -0.207954	            0.012412	          -13.483294	           75.267296	            0.743637	           -0.208233	            0.005772	           -0.708823	           -0.007946	            0.044358	            0.000438
            0.013000	            8.544783	           82.765620	           -4.802349	           -0.199015	            0.005932	           -0.336116	           -0.023786	           -0.230395	            0.013368	          -14.474391	           77.288865	            0.892068	           -0.208369	            0.005771	           -0.708792	            0.003385	           -0.018077	           -0.000209
